<svg viewBox="0 0 620 400" xmlns="http://www.w3.org/2000/svg" role="img" aria-label="Gradient descent on a bowl-shaped loss curve">
<defs><marker id="ah" markerWidth="8" markerHeight="8" refX="7" refY="4" orient="auto"><path d="M0,0 L8,4 L0,8 Z" fill="#0a7aff"/></marker><marker id="ahr" markerWidth="8" markerHeight="8" refX="7" refY="4" orient="auto"><path d="M0,0 L8,4 L0,8 Z" fill="#d62728"/></marker></defs>
<style>text{font-family:-apple-system,system-ui,sans-serif;font-size:11px;fill:#333}.t{font-size:13px;font-weight:700}.sm{font-size:9.5px;fill:#777}</style>
<text x="20" y="18" class="t">One weight, one bowl: L(w) with b held at its best value</text>
<line x1="70" y1="350" x2="612" y2="350" stroke="#999"/>
<line x1="70" y1="350" x2="70" y2="50" stroke="#999"/>
<text x="70" y="366" class="sm" text-anchor="middle">w=0</text>
<text x="205" y="366" class="sm" text-anchor="middle">w=1</text>
<text x="340" y="366" class="sm" text-anchor="middle">w=2</text>
<text x="475" y="366" class="sm" text-anchor="middle">w=3</text>
<text x="610" y="366" class="sm" text-anchor="middle">w=4</text>
<text x="62" y="353.5" class="sm" text-anchor="end">0</text>
<text x="62" y="293.5" class="sm" text-anchor="end">2</text>
<text x="62" y="233.5" class="sm" text-anchor="end">4</text>
<text x="62" y="173.5" class="sm" text-anchor="end">6</text>
<text x="62" y="113.5" class="sm" text-anchor="end">8</text>
<text x="614" y="366" class="sm">w &#8594;</text>
<text x="20" y="60" class="sm">loss</text>
<polyline points="70.0,110.0 76.8,121.9 83.5,133.4 90.2,144.6 97.0,155.6 103.8,166.2 110.5,176.6 117.2,186.7 124.0,196.4 130.8,205.8 137.5,215.0 144.2,223.8 151.0,232.4 157.8,240.6 164.5,248.6 171.2,256.2 178.0,263.6 184.8,270.6 191.5,277.4 198.3,283.9 205.0,290.0 211.8,295.9 218.5,301.4 225.3,306.7 232.0,311.6 238.8,316.3 245.5,320.6 252.3,324.7 259.0,328.4 265.8,331.9 272.5,335.0 279.3,337.9 286.0,340.4 292.8,342.7 299.5,344.6 306.3,346.2 313.0,347.6 319.8,348.7 326.5,349.4 333.3,349.9 340.0,350.0 346.8,349.9 353.5,349.4 360.3,348.6 367.0,347.6 373.8,346.2 380.5,344.6 387.2,342.7 394.0,340.4 400.7,337.9 407.5,335.0 414.2,331.9 421.0,328.4 427.7,324.7 434.5,320.6 441.2,316.3 448.0,311.6 454.7,306.7 461.5,301.4 468.2,295.9 475.0,290.0 481.7,283.9 488.5,277.4 495.2,270.7 502.0,263.6 508.7,256.3 515.5,248.6 522.2,240.7 529.0,232.4 535.7,223.9 542.5,215.0 549.2,205.9 556.0,196.4 562.7,186.7 569.5,176.6 576.2,166.3 583.0,155.6 589.7,144.7 596.5,133.4 603.2,121.9 610.0,110.0" fill="none" stroke="#0a7aff" stroke-width="2.2"/>
<rect x="384" y="26" width="216" height="76" rx="8" fill="#eef4ff" stroke="#0a7aff"/>
<text x="396" y="48" class="t" fill="#0a54c2">the update rule</text>
<text x="396" y="70" font-size="13" font-weight="700" fill="#0a54c2">w &#8592; w &#8722; lr &#183; dL/dw</text>
<text x="396" y="90" fill="#0a54c2">dL/dw = mean(2&#183;error&#183;x)</text>
<line x1="110.5" y1="176.60000000000002" x2="146.5" y2="228.60000000000002" stroke="#d62728" stroke-width="2" marker-end="url(#ahr)"/>
<text x="154.5" y="220.60000000000002">slope (gradient)</text>
<text x="154.5" y="234.60000000000002">is steep &#8594; big step</text>
<line x1="110.5" y1="176.6" x2="191.5" y2="277.4" stroke="#0a7aff" stroke-width="1.8" marker-end="url(#ah)"/>
<line x1="191.5" y1="277.4" x2="245.5" y2="320.6" stroke="#0a7aff" stroke-width="1.8" marker-end="url(#ah)"/>
<line x1="245.5" y1="320.6" x2="286.0" y2="340.4" stroke="#0a7aff" stroke-width="1.8" marker-end="url(#ah)"/>
<line x1="286.0" y1="340.4" x2="313.0" y2="347.6" stroke="#0a7aff" stroke-width="1.8" marker-end="url(#ah)"/>
<line x1="313.0" y1="347.6" x2="333.2" y2="349.9" stroke="#0a7aff" stroke-width="1.8" marker-end="url(#ah)"/>
<line x1="333.2" y1="349.9" x2="340.0" y2="350.0" stroke="#0a7aff" stroke-width="1.8" marker-end="url(#ah)"/>
<circle cx="110.5" cy="176.6" r="5" fill="#0a7aff"/>
<circle cx="191.5" cy="277.4" r="5" fill="#0a7aff"/>
<circle cx="245.5" cy="320.6" r="5" fill="#0a7aff"/>
<circle cx="286.0" cy="340.4" r="5" fill="#0a7aff"/>
<circle cx="313.0" cy="347.6" r="5" fill="#0a7aff"/>
<circle cx="333.2" cy="349.9" r="5" fill="#0a7aff"/>
<circle cx="340.0" cy="350.0" r="6.5" fill="#22a355"/>
<text x="102.5" y="160.60000000000002" text-anchor="middle">w&#8320; = 0.3</text>
<text x="340.0" y="330.0" text-anchor="middle">&#9733; minimum (w = 2.0)</text>
<text x="300" y="318" text-anchor="middle" class="sm">steps shrink as the slope flattens</text>
</svg>