<svg xmlns="http://www.w3.org/2000/svg" viewBox="0 0 640 600" role="img" aria-label="Softmax pipeline and cross-entropy penalty curve">
<text x="320" y="30" text-anchor="middle" font-size="15" font-weight="700" fill="currentColor">softmax: raw scores &#8594; probabilities</text>
<text x="110" y="62" text-anchor="middle" font-size="12" font-weight="600" fill="currentColor">logits  z</text>
<rect x="44.0" y="127.0" width="34" height="88.0" rx="3" fill="#22a355"/>
<text x="61.0" y="121.0" text-anchor="middle" font-size="10.5" fill="currentColor">2.00</text>
<text x="61.0" y="233" text-anchor="middle" font-size="10.5" fill="currentColor">bull</text>
<rect x="90.0" y="171.0" width="34" height="44.0" rx="3" fill="#e5484d"/>
<text x="107.0" y="165.0" text-anchor="middle" font-size="10.5" fill="currentColor">1.00</text>
<text x="107.0" y="233" text-anchor="middle" font-size="10.5" fill="currentColor">bear</text>
<rect x="136.0" y="210.6" width="34" height="4.4" rx="3" fill="#d99a00"/>
<text x="153.0" y="204.6" text-anchor="middle" font-size="10.5" fill="currentColor">0.10</text>
<text x="153.0" y="233" text-anchor="middle" font-size="10.5" fill="currentColor">chop</text>
<text x="320" y="62" text-anchor="middle" font-size="12" font-weight="600" fill="currentColor">exp(z)</text>
<rect x="254.0" y="128.3" width="34" height="86.7" rx="3" fill="#22a355"/>
<text x="271.0" y="122.3" text-anchor="middle" font-size="10.5" fill="currentColor">7.39</text>
<text x="271.0" y="233" text-anchor="middle" font-size="10.5" fill="currentColor">bull</text>
<rect x="300.0" y="183.1" width="34" height="31.9" rx="3" fill="#e5484d"/>
<text x="317.0" y="177.1" text-anchor="middle" font-size="10.5" fill="currentColor">2.72</text>
<text x="317.0" y="233" text-anchor="middle" font-size="10.5" fill="currentColor">bear</text>
<rect x="346.0" y="202.0" width="34" height="13.0" rx="3" fill="#d99a00"/>
<text x="363.0" y="196.0" text-anchor="middle" font-size="10.5" fill="currentColor">1.11</text>
<text x="363.0" y="233" text-anchor="middle" font-size="10.5" fill="currentColor">chop</text>
<text x="530" y="62" text-anchor="middle" font-size="12" font-weight="600" fill="currentColor">probabilities  p</text>
<rect x="464.0" y="157.0" width="34" height="58.0" rx="3" fill="#22a355"/>
<text x="481.0" y="151.0" text-anchor="middle" font-size="10.5" fill="currentColor">0.66</text>
<text x="481.0" y="233" text-anchor="middle" font-size="10.5" fill="currentColor">bull</text>
<rect x="510.0" y="193.7" width="34" height="21.3" rx="3" fill="#e5484d"/>
<text x="527.0" y="187.7" text-anchor="middle" font-size="10.5" fill="currentColor">0.24</text>
<text x="527.0" y="233" text-anchor="middle" font-size="10.5" fill="currentColor">bear</text>
<rect x="556.0" y="206.3" width="34" height="8.7" rx="3" fill="#d99a00"/>
<text x="573.0" y="200.3" text-anchor="middle" font-size="10.5" fill="currentColor">0.10</text>
<text x="573.0" y="233" text-anchor="middle" font-size="10.5" fill="currentColor">chop</text>
<line x1="218" y1="150" x2="270" y2="150" stroke="#0a7aff" stroke-width="2" marker-end="url(#arr)"/>
<text x="244" y="140" text-anchor="middle" font-size="11" font-weight="600" fill="#0a54c2">exp( )</text>
<line x1="428" y1="150" x2="480" y2="150" stroke="#0a7aff" stroke-width="2" marker-end="url(#arr)"/>
<text x="454" y="140" text-anchor="middle" font-size="11" font-weight="600" fill="#0a54c2">÷ 11.21</text>
<text x="454" y="168" text-anchor="middle" font-size="10" fill="currentColor">the sum</text>
<defs><marker id="arr" markerWidth="8" markerHeight="8" refX="7" refY="4" orient="auto"><path d="M0,0 L8,4 L0,8 Z" fill="#0a7aff"/></marker></defs>
<text x="320" y="258" text-anchor="middle" font-size="11" fill="currentColor">softmax(z) = softmax(z &#8722; max(z)) &#8212; subtract the max first, same answer, no overflow</text>
<line x1="30" y1="276" x2="610" y2="276" stroke="#ccc" stroke-width="1"/>
<text x="320" y="306" text-anchor="middle" font-size="15" font-weight="700" fill="currentColor">cross-entropy = &#8722;log p: the bill for your mistake</text>
<line x1="70" y1="476.2" x2="595" y2="476.2" stroke="#e0e0e0" stroke-width="1"/>
<text x="62" y="480.2" text-anchor="end" font-size="10.5" fill="currentColor">1</text>
<line x1="70" y1="432.4" x2="595" y2="432.4" stroke="#e0e0e0" stroke-width="1"/>
<text x="62" y="436.4" text-anchor="end" font-size="10.5" fill="currentColor">2</text>
<line x1="70" y1="388.6" x2="595" y2="388.6" stroke="#e0e0e0" stroke-width="1"/>
<text x="62" y="392.6" text-anchor="end" font-size="10.5" fill="currentColor">3</text>
<line x1="70" y1="344.8" x2="595" y2="344.8" stroke="#e0e0e0" stroke-width="1"/>
<text x="62" y="348.8" text-anchor="end" font-size="10.5" fill="currentColor">4</text>
<text x="62" y="524.0" text-anchor="end" font-size="10.5" fill="currentColor">0</text>
<text x="30" y="428" font-size="11" fill="currentColor" transform="rotate(-90 30 428)" text-anchor="middle">loss &#8722;log(p)</text>
<text x="332" y="550" text-anchor="middle" font-size="11" fill="currentColor">probability p you assigned to the true class</text>
<text x="70.0" y="536" text-anchor="middle" font-size="10.5" fill="currentColor">0</text>
<text x="193.2" y="536" text-anchor="middle" font-size="10.5" fill="currentColor">0.25</text>
<text x="327.1" y="536" text-anchor="middle" font-size="10.5" fill="currentColor">0.5</text>
<text x="461.1" y="536" text-anchor="middle" font-size="10.5" fill="currentColor">0.75</text>
<text x="595.0" y="536" text-anchor="middle" font-size="10.5" fill="currentColor">1.0</text>
<polyline points="70.0,348.6 74.4,363.6 78.8,374.8 83.1,383.7 87.5,391.0 91.9,397.4 96.2,402.9 100.6,407.8 105.0,412.2 109.4,416.2 113.8,419.8 118.1,423.2 122.5,426.4 126.9,429.3 131.2,432.1 135.6,434.6 140.0,437.1 144.4,439.4 148.8,441.6 153.1,443.7 157.5,445.7 161.9,447.6 166.2,449.4 170.6,451.2 175.0,452.9 179.4,454.5 183.8,456.1 188.1,457.6 192.5,459.0 196.9,460.4 201.3,461.8 205.6,463.1 210.0,464.4 214.4,465.7 218.8,466.9 223.1,468.1 227.5,469.3 231.9,470.4 236.3,471.5 240.6,472.5 245.0,473.6 249.4,474.6 253.8,475.6 258.1,476.6 262.5,477.5 266.9,478.5 271.2,479.4 275.6,480.3 280.0,481.2 284.4,482.0 288.8,482.9 293.1,483.7 297.5,484.5 301.9,485.3 306.2,486.1 310.6,486.8 315.0,487.6 319.4,488.3 323.8,489.1 328.1,489.8 332.5,490.5 336.9,491.2 341.2,491.9 345.6,492.6 350.0,493.2 354.4,493.9 358.7,494.5 363.1,495.2 367.5,495.8 371.9,496.4 376.2,497.0 380.6,497.6 385.0,498.2 389.4,498.8 393.7,499.4 398.1,499.9 402.5,500.5 406.9,501.0 411.2,501.6 415.6,502.1 420.0,502.7 424.4,503.2 428.8,503.7 433.1,504.2 437.5,504.7 441.9,505.3 446.2,505.8 450.6,506.2 455.0,506.7 459.4,507.2 463.8,507.7 468.1,508.2 472.5,508.6 476.9,509.1 481.3,509.5 485.6,510.0 490.0,510.4 494.4,510.9 498.7,511.3 503.1,511.8 507.5,512.2 511.9,512.6 516.2,513.0 520.6,513.5 525.0,513.9 529.4,514.3 533.8,514.7 538.1,515.1 542.5,515.5 546.9,515.9 551.2,516.3 555.6,516.7 560.0,517.0 564.4,517.4 568.8,517.8 573.1,518.2 577.5,518.5 581.9,518.9 586.2,519.3 590.6,519.6 595.0,520.0" fill="none" stroke="#7a5cff" stroke-width="2.5"/>
<line x1="70" y1="520" x2="595" y2="520" stroke="#888" stroke-width="1.5"/>
<line x1="70" y1="520" x2="70" y2="336" stroke="#888" stroke-width="1.5"/>
<circle cx="412.3" cy="501.7" r="5" fill="#22a355" stroke="#fff" stroke-width="1.5"/>
<text x="421.3" y="479.7" font-size="10.5" fill="currentColor">gave 66% to the winner</text>
<text x="421.3" y="491.7" font-size="10.5" font-weight="700" fill="#22a355">bill: 0.42</text>
<circle cx="112.9" cy="419.1" r="5" fill="#d99a00" stroke="#fff" stroke-width="1.5"/>
<text x="121.9" y="397.1" font-size="10.5" fill="currentColor">10% on the winner</text>
<text x="121.9" y="409.1" font-size="10.5" font-weight="700" fill="#d99a00">bill: 2.30</text>
<circle cx="75.4" cy="366.4" r="5" fill="#e5484d" stroke="#fff" stroke-width="1.5"/>
<text x="84.4" y="344.4" font-size="10.5" fill="currentColor">3% on the winner</text>
<text x="84.4" y="356.4" font-size="10.5" font-weight="700" fill="#e5484d">bill: 3.51</text>
<text x="320" y="580" text-anchor="middle" font-size="11" fill="currentColor">every extra 10× of wrong confidence costs exactly ln(10) ≈ 2.3 more &#8212; confident-and-wrong is brutal</text>
</svg>
